<?xml version="1.0" standalone="no"?><!DOCTYPE svg PUBLIC "-//W3C//DTD SVG 1.1//EN" "http://www.w3.org/Graphics/SVG/1.1/DTD/svg11.dtd"><svg class="icon" width="200px" height="200.00px" viewBox="0 0 1024 1024" version="1.1" xmlns="http://www.w3.org/2000/svg"><path d="M604.16 742.4c0-5.12-5.12-5.12-5.12-5.12-20.48-15.36-56.32-15.36-71.68 5.12l-153.6 184.32c-5.12 5.12-5.12 10.24-5.12 15.36 0 15.36 10.24 25.6 25.6 25.6H665.6c25.6 0 76.8-61.44 71.68-66.56-35.84-30.72-76.8-87.04-133.12-158.72z" fill="#5AC8FA" /><path d="M230.4 768c15.36 0 25.6 10.24 25.6 25.6s-10.24 25.6-25.6 25.6h-102.4C56.32 819.2 0 762.88 0 691.2v-512C0 107.52 56.32 51.2 128 51.2h768C967.68 51.2 1024 107.52 1024 179.2v512c0 71.68-56.32 128-128 128h-102.4c-15.36 0-25.6-10.24-25.6-25.6s10.24-25.6 25.6-25.6h102.4c40.96 0 76.8-35.84 76.8-76.8v-512c0-40.96-35.84-76.8-76.8-76.8h-768C87.04 102.4 51.2 138.24 51.2 179.2v512c0 40.96 35.84 76.8 76.8 76.8h102.4z m322.56-76.8c0-5.12-5.12-5.12-5.12-5.12-20.48-15.36-56.32-15.36-71.68 5.12l-153.6 184.32c-5.12 5.12-5.12 10.24-5.12 15.36 0 15.36 10.24 25.6 25.6 25.6h343.04c5.12 0 10.24 0 15.36-5.12 10.24-10.24 10.24-25.6 5.12-35.84l-153.6-184.32z m189.44 158.72c25.6 30.72 20.48 81.92-10.24 107.52-15.36 10.24-30.72 15.36-51.2 15.36H343.04c-40.96 0-76.8-35.84-76.8-76.8 0-15.36 5.12-35.84 15.36-46.08l153.6-184.32c35.84-46.08 102.4-51.2 143.36-15.36l15.36 15.36 148.48 184.32z"  /></svg>