<?xml version="1.0" standalone="no"?><!DOCTYPE svg PUBLIC "-//W3C//DTD SVG 1.1//EN" "http://www.w3.org/Graphics/SVG/1.1/DTD/svg11.dtd"><svg class="icon" width="200px" height="200.00px" viewBox="0 0 1024 1024" version="1.1" xmlns="http://www.w3.org/2000/svg"><path d="M640 588.8m-332.8 0a332.8 332.8 0 1 0 665.6 0 332.8 332.8 0 1 0-665.6 0Z" fill="#5AC8FA" /><path d="M972.8 537.6h-256c-5.12 184.32-46.08 343.04-107.52 424.96 199.68-40.96 353.28-215.04 363.52-424.96z m0-51.2c-10.24-209.92-163.84-384-363.52-424.96 61.44 81.92 102.4 240.64 107.52 424.96h256z m-921.6 0h256c5.12-184.32 46.08-343.04 107.52-424.96C215.04 102.4 61.44 276.48 51.2 486.4z m0 51.2c10.24 209.92 163.84 384 363.52 424.96-61.44-81.92-102.4-240.64-107.52-424.96H51.2z m614.4 0H358.4c5.12 245.76 81.92 435.2 153.6 435.2s148.48-189.44 153.6-435.2z m0-51.2C660.48 240.64 583.68 51.2 512 51.2S363.52 240.64 358.4 486.4h307.2zM512 1024C230.4 1024 0 793.6 0 512S230.4 0 512 0s512 230.4 512 512-230.4 512-512 512z"  /></svg>