<?xml version="1.0" standalone="no"?><!DOCTYPE svg PUBLIC "-//W3C//DTD SVG 1.1//EN" "http://www.w3.org/Graphics/SVG/1.1/DTD/svg11.dtd"><svg class="icon" width="200px" height="200.00px" viewBox="0 0 1024 1024" version="1.1" xmlns="http://www.w3.org/2000/svg"><path d="M471.04 317.44L665.6 358.4v563.2l-256-51.2V368.64c0-30.72 20.48-51.2 51.2-51.2h10.24z" fill="#5AC8FA" /><path d="M640 911.36v-716.8c-10.24 0-15.36-5.12-20.48-5.12L384 112.64v711.68c10.24 0 15.36 5.12 20.48 5.12l235.52 81.92z m51.2 0l194.56-66.56c20.48-5.12 35.84-25.6 35.84-46.08V122.88l-209.92 71.68c-5.12 0-15.36 5.12-20.48 5.12v711.68z m-358.4-81.92v-716.8L138.24 179.2c-20.48 5.12-35.84 25.6-35.84 46.08v675.84l209.92-71.68h20.48zM122.88 128l204.8-66.56c20.48-5.12 46.08-5.12 66.56 0l240.64 81.92c20.48 5.12 46.08 5.12 66.56 0l209.92-71.68c25.6-10.24 56.32 5.12 66.56 30.72-5.12 10.24-5.12 15.36-5.12 20.48v675.84c0 46.08-30.72 81.92-71.68 97.28l-204.8 66.56c-20.48 5.12-46.08 5.12-66.56 0l-240.64-81.92c-20.48-5.12-46.08-5.12-66.56 0l-209.92 71.68c-25.6 10.24-56.32-5.12-66.56-30.72 5.12-10.24 5.12-15.36 5.12-20.48V225.28c0-40.96 30.72-81.92 71.68-97.28z"  /></svg>