<?xml version="1.0" standalone="no"?><!DOCTYPE svg PUBLIC "-//W3C//DTD SVG 1.1//EN" "http://www.w3.org/Graphics/SVG/1.1/DTD/svg11.dtd"><svg class="icon" width="200px" height="200.00px" viewBox="0 0 1024 1024" version="1.1" xmlns="http://www.w3.org/2000/svg"><path d="M588.8 588.8m-281.6 0a281.6 281.6 0 1 0 563.2 0 281.6 281.6 0 1 0-563.2 0Z" fill="#5AC8FA" /><path d="M486.4 506.88V230.4c0-15.36 10.24-25.6 25.6-25.6s25.6 10.24 25.6 25.6v266.24l153.6 56.32c15.36 5.12 20.48 20.48 15.36 30.72-5.12 15.36-20.48 20.48-30.72 15.36l-168.96-61.44c-15.36-5.12-20.48-20.48-20.48-30.72z m312.32 332.8c-76.8 66.56-179.2 107.52-286.72 107.52-107.52 0-204.8-40.96-281.6-102.4l-133.12 133.12c-10.24 10.24-25.6 10.24-35.84 0-10.24-10.24-10.24-25.6 0-35.84l133.12-133.12c-71.68-76.8-117.76-179.2-117.76-296.96 0-240.64 194.56-435.2 435.2-435.2s435.2 194.56 435.2 435.2c0 112.64-40.96 209.92-107.52 286.72l138.24 138.24c10.24 10.24 10.24 25.6 0 35.84-10.24 10.24-25.6 10.24-35.84 0l-143.36-133.12z m179.2-593.92c5.12 10.24 5.12 25.6-10.24 35.84-10.24 5.12-25.6 5.12-35.84-10.24-51.2-81.92-122.88-153.6-209.92-194.56-10.24-5.12-20.48-20.48-10.24-35.84s20.48-20.48 35.84-10.24c97.28 46.08 174.08 117.76 230.4 215.04zM276.48 30.72c10.24-5.12 25.6 0 35.84 10.24s0 25.6-10.24 35.84c-92.16 40.96-163.84 107.52-209.92 194.56-10.24 10.24-25.6 15.36-35.84 5.12S40.96 256 46.08 245.76C102.4 148.48 179.2 76.8 276.48 30.72zM512 896c209.92 0 384-174.08 384-384S721.92 128 512 128 128 302.08 128 512s174.08 384 384 384z"  /></svg>