<?xml version="1.0" standalone="no"?><!DOCTYPE svg PUBLIC "-//W3C//DTD SVG 1.1//EN" "http://www.w3.org/Graphics/SVG/1.1/DTD/svg11.dtd"><svg class="icon" width="200px" height="200.00px" viewBox="0 0 1024 1024" version="1.1" xmlns="http://www.w3.org/2000/svg"><path d="M512 512h358.4c56.32 0 102.4 46.08 102.4 102.4v256c0 56.32-46.08 102.4-102.4 102.4h-358.4c-56.32 0-102.4-46.08-102.4-102.4v-256c0-56.32 46.08-102.4 102.4-102.4z" fill="#5AC8FA" /><path d="M768 153.6v25.6c0 15.36-10.24 25.6-25.6 25.6s-25.6-10.24-25.6-25.6V153.6H307.2v25.6c0 15.36-10.24 25.6-25.6 25.6S256 194.56 256 179.2V153.6H153.6c-30.72 0-51.2 20.48-51.2 51.2v153.6h819.2V204.8c0-30.72-20.48-51.2-51.2-51.2h-102.4z m0-51.2h102.4c56.32 0 102.4 46.08 102.4 102.4v665.6c0 56.32-46.08 102.4-102.4 102.4H153.6c-56.32 0-102.4-46.08-102.4-102.4V204.8c0-56.32 46.08-102.4 102.4-102.4h102.4v-25.6c0-15.36 10.24-25.6 25.6-25.6s25.6 10.24 25.6 25.6V102.4h409.6v-25.6c0-15.36 10.24-25.6 25.6-25.6s25.6 10.24 25.6 25.6V102.4zM102.4 409.6v460.8c0 30.72 20.48 51.2 51.2 51.2h716.8c30.72 0 51.2-20.48 51.2-51.2V409.6H102.4z"  /></svg>