<?xml version="1.0" standalone="no"?><!DOCTYPE svg PUBLIC "-//W3C//DTD SVG 1.1//EN" "http://www.w3.org/Graphics/SVG/1.1/DTD/svg11.dtd"><svg class="icon" width="200px" height="200.00px" viewBox="0 0 1024 1024" version="1.1" xmlns="http://www.w3.org/2000/svg"><path d="M711.68 573.44c0-5.12-5.12-5.12-10.24-5.12-10.24-5.12-30.72-5.12-35.84 5.12l-204.8 307.2v15.36c0 15.36 10.24 25.6 25.6 25.6h409.6c5.12 0 10.24 0 15.36-5.12 10.24-5.12 15.36-20.48 10.24-35.84l-209.92-307.2z" fill="#5AC8FA" /><path d="M552.96 163.84l-15.36-15.36c-25.6-15.36-56.32-10.24-71.68 15.36L66.56 793.6c-5.12 10.24-10.24 15.36-10.24 25.6 0 30.72 20.48 51.2 51.2 51.2h803.84c10.24 0 20.48-5.12 25.6-10.24 25.6-15.36 30.72-46.08 15.36-71.68L552.96 163.84z m46.08-30.72l399.36 629.76c30.72 46.08 15.36 112.64-30.72 143.36-15.36 10.24-35.84 15.36-56.32 15.36H112.64c-56.32 0-102.4-46.08-102.4-102.4 0-20.48 5.12-40.96 15.36-56.32L424.96 133.12c30.72-46.08 92.16-61.44 143.36-30.72l30.72 30.72zM512 281.6c15.36 0 25.6 10.24 25.6 25.6v358.4c0 15.36-10.24 25.6-25.6 25.6s-25.6-10.24-25.6-25.6V307.2c0-15.36 10.24-25.6 25.6-25.6z m0 460.8c15.36 0 25.6 10.24 25.6 25.6s-10.24 25.6-25.6 25.6-25.6-10.24-25.6-25.6 10.24-25.6 25.6-25.6z"  /></svg>