<?xml version="1.0" standalone="no"?><!DOCTYPE svg PUBLIC "-//W3C//DTD SVG 1.1//EN" "http://www.w3.org/Graphics/SVG/1.1/DTD/svg11.dtd"><svg class="icon" width="200px" height="200.00px" viewBox="0 0 1024 1024" version="1.1" xmlns="http://www.w3.org/2000/svg"><path d="M307.2 409.6h307.2c56.32 0 102.4 46.08 102.4 102.4v256c0 56.32-46.08 102.4-102.4 102.4H307.2c-56.32 0-102.4-46.08-102.4-102.4v-256c0-56.32 46.08-102.4 102.4-102.4z" fill="#5AC8FA" /><path d="M716.8 440.32l220.16-168.96c25.6-15.36 56.32-15.36 76.8 10.24 5.12 5.12 10.24 20.48 10.24 30.72v409.6c0 30.72-25.6 51.2-51.2 51.2-10.24 0-20.48-5.12-30.72-10.24L716.8 614.4v153.6c0 56.32-46.08 102.4-102.4 102.4H102.4c-56.32 0-102.4-46.08-102.4-102.4V256c0-56.32 46.08-102.4 102.4-102.4h512c56.32 0 102.4 46.08 102.4 102.4v184.32zM102.4 204.8c-30.72 0-51.2 20.48-51.2 51.2v512c0 30.72 20.48 51.2 51.2 51.2h512c30.72 0 51.2-20.48 51.2-51.2V256c0-30.72-20.48-51.2-51.2-51.2H102.4z m870.4 107.52l-230.4 179.2-10.24 10.24c-15.36 25.6-10.24 56.32 15.36 71.68l225.28 148.48v-409.6z"  /></svg>