<?xml version="1.0" standalone="no"?><!DOCTYPE svg PUBLIC "-//W3C//DTD SVG 1.1//EN" "http://www.w3.org/Graphics/SVG/1.1/DTD/svg11.dtd"><svg class="icon" width="200px" height="200.00px" viewBox="0 0 1024 1024" version="1.1" xmlns="http://www.w3.org/2000/svg"><path d="M358.4 153.6l92.16 327.68c5.12 10.24-5.12 25.6-15.36 30.72H291.84c-15.36 0-25.6-10.24-25.6-25.6v-5.12L358.4 153.6zM665.6 870.4l-92.16-327.68v-5.12c0-15.36 10.24-25.6 25.6-25.6H742.4c15.36 5.12 20.48 20.48 15.36 30.72L665.6 870.4z" fill="#5AC8FA" /><path d="M25.6 537.6c-15.36 0-25.6-10.24-25.6-25.6s10.24-25.6 25.6-25.6h143.36c10.24 0 20.48-5.12 25.6-20.48L307.2 71.68c10.24-25.6 35.84-40.96 61.44-35.84 20.48 10.24 35.84 20.48 40.96 35.84l256 860.16 117.76-394.24c10.24-30.72 40.96-56.32 71.68-56.32h143.36c15.36 0 25.6 10.24 25.6 25.6s-10.24 25.6-25.6 25.6h-143.36c-10.24 0-20.48 5.12-25.6 20.48L716.8 947.2c-5.12 15.36-15.36 30.72-35.84 35.84-25.6 10.24-56.32-5.12-61.44-35.84L358.4 87.04 240.64 481.28c-10.24 30.72-40.96 56.32-71.68 56.32H25.6z"  /></svg>